<svg xmlns="http://www.w3.org/2000/svg" viewBox="0 0 24 24" fill="#c4b5fd">
  <path d="M3.28 2.22a.75.75 0 1 0-1.06 1.06l2.1 2.1C2.7 7.3 1.7 9.1 1.45 9.66a1.2 1.2 0 0 0 0 1.06C2.66 12.86 5.95 17.5 11 17.5c1.55 0 2.95-.42 4.18-1.05l4.54 4.54a.75.75 0 1 0 1.06-1.06L3.28 2.22zM8.1 10.16l1.52 1.52a2.5 2.5 0 0 0 3.2 3.2l1.52 1.52A4 4 0 0 1 8.1 10.16zm7.53 2.41 1.33 1.33c.66-.7 1.17-1.48 1.54-2.12a1.2 1.2 0 0 0 0-1.18C17.34 8.64 14.55 5 11 5c-.9 0-1.75.2-2.53.52l1.5 1.5A4 4 0 0 1 15.63 12.57z"/>
</svg>
